<?xml version="1.0" encoding="UTF-8"?>
<svg id="Calque_1" data-name="Calque 1" xmlns="http://www.w3.org/2000/svg" xmlns:xlink="http://www.w3.org/1999/xlink" height="60" viewBox="0 0 897.29 322.72">
  <defs>
    <style>
      .cls-1 {
        fill: #47ae4c;
      }

      .cls-2 {
        fill: url(#Dégradé_vert-4);
      }

      .cls-3 {
        fill: url(#Dégradé_vert-9);
      }

      .cls-4 {
        fill: url(#Dégradé_vert-7);
      }

      .cls-5 {
        fill: url(#Dégradé_vert-5);
      }

      .cls-6 {
        fill: url(#Dégradé_vert-6);
      }

      .cls-7 {
        fill: url(#Dégradé_vert-8);
      }

      .cls-8 {
        fill: url(#Dégradé_vert-3);
      }

      .cls-9 {
        fill: url(#Dégradé_vert-2);
      }

      .cls-10 {
        fill: #892647;
        stroke: #892647;
      }

      .cls-10, .cls-11, .cls-12, .cls-13, .cls-14 {
        stroke-miterlimit: 10;
      }

      .cls-15 {
        fill: url(#Dégradé_vert-10);
      }

      .cls-16 {
        fill: url(#Dégradé_vert);
      }

      .cls-11 {
        fill: url(#Dégradé_vert-13);
        stroke: url(#Dégradé_vert_II-3);
      }

      .cls-11, .cls-12, .cls-13 {
        opacity: .2;
      }

      .cls-12 {
        fill: url(#Dégradé_vert-14);
        stroke: url(#Dégradé_vert_II-4);
      }

      .cls-13 {
        fill: url(#Dégradé_vert-12);
        stroke: url(#Dégradé_vert_II-2);
      }

      .cls-14 {
        fill: url(#Dégradé_vert-11);
        stroke: url(#Dégradé_vert_II);
      }
    </style>
    <linearGradient id="Dégradé_vert" data-name="Dégradé vert" x1="496.24" y1="98.01" x2="588.89" y2="98.01" gradientTransform="translate(898.1) rotate(-180) scale(1 -1)" gradientUnits="userSpaceOnUse">
      <stop offset="0" stop-color="#96be1f"/>
      <stop offset=".5" stop-color="#3daa39"/>
      <stop offset="1" stop-color="#0f6836"/>
    </linearGradient>
    <linearGradient id="Dégradé_vert-2" data-name="Dégradé vert" x1="552.63" y1="33.29" x2="760.81" y2="33.29" xlink:href="#Dégradé_vert"/>
    <linearGradient id="Dégradé_vert-3" data-name="Dégradé vert" x1="509.19" y1="193.28" x2="559.71" y2="193.28" xlink:href="#Dégradé_vert"/>
    <linearGradient id="Dégradé_vert-4" data-name="Dégradé vert" x1="495.1" y1="163.41" x2="560.98" y2="163.41" xlink:href="#Dégradé_vert"/>
    <linearGradient id="Dégradé_vert-5" data-name="Dégradé vert" x1="492.54" y1="130.56" x2="571.49" y2="130.56" xlink:href="#Dégradé_vert"/>
    <linearGradient id="Dégradé_vert-6" data-name="Dégradé vert" x1="624.56" y1="35.29" x2="812.74" y2="35.29" xlink:href="#Dégradé_vert"/>
    <linearGradient id="Dégradé_vert-7" data-name="Dégradé vert" x1="774.84" y1="89.05" x2="888.1" y2="89.05" xlink:href="#Dégradé_vert"/>
    <linearGradient id="Dégradé_vert-8" data-name="Dégradé vert" x1="815.18" y1="116.72" x2="898.1" y2="116.72" xlink:href="#Dégradé_vert"/>
    <linearGradient id="Dégradé_vert-9" data-name="Dégradé vert" x1="682.74" y1="48.95" x2="847.38" y2="48.95" xlink:href="#Dégradé_vert"/>
    <linearGradient id="Dégradé_vert-10" data-name="Dégradé vert" x1="733.04" y1="67.41" x2="871.25" y2="67.41" xlink:href="#Dégradé_vert"/>
    <linearGradient id="Dégradé_vert-11" data-name="Dégradé vert" x1="868.5" y1="209.63" x2="521.61" y2="209.63" gradientTransform="translate(897.7) rotate(-180) scale(1 -1)" xlink:href="#Dégradé_vert"/>
    <linearGradient id="Dégradé_vert_II" data-name="Dégradé vert II" x1="28.34" y1="209.38" x2="376.96" y2="209.38" gradientUnits="userSpaceOnUse">
      <stop offset="0" stop-color="#96be1f"/>
      <stop offset=".5" stop-color="#3daa39"/>
      <stop offset="1" stop-color="#0f6836"/>
    </linearGradient>
    <linearGradient id="Dégradé_vert-12" data-name="Dégradé vert" x1="246.09" y1="151.38" x2="277.46" y2="151.38" gradientTransform="matrix(1, 0, 0, 1, 0, 0)" xlink:href="#Dégradé_vert"/>
    <linearGradient id="Dégradé_vert_II-2" data-name="Dégradé vert II" x1="245.51" y1="151.38" x2="278.04" y2="151.38" xlink:href="#Dégradé_vert_II"/>
    <linearGradient id="Dégradé_vert-13" data-name="Dégradé vert" x1="84.71" y1="308.64" x2="131.76" y2="308.64" gradientTransform="matrix(1, 0, 0, 1, 0, 0)" xlink:href="#Dégradé_vert"/>
    <linearGradient id="Dégradé_vert_II-3" data-name="Dégradé vert II" x1="83.84" y1="308.64" x2="132.63" y2="308.64" xlink:href="#Dégradé_vert_II"/>
    <linearGradient id="Dégradé_vert-14" data-name="Dégradé vert" x1="287.56" y1="272.72" x2="344.72" y2="272.72" gradientTransform="matrix(1, 0, 0, 1, 0, 0)" xlink:href="#Dégradé_vert"/>
    <linearGradient id="Dégradé_vert_II-4" data-name="Dégradé vert II" x1="287.13" y1="272.84" x2="345.59" y2="272.84" xlink:href="#Dégradé_vert_II"/>
  </defs>
  <g>
    <g>
      <path class="cls-16" d="M346.24,76.22c18.39,6.04,42.87,19.53,55.62,49.56-6.99-3.63-48.98-25.1-79.06-33.56-4.71-9.23-9.73-16.74-13.59-21.96,3.54-.05,19.21,.11,37.03,5.97Z"/>
      <path class="cls-9" d="M137.28,.84c1.49-.14,2.98-.27,4.51-.38C146.09,.15,150.38,0,154.66,0c56.83,0,113.41,26.69,185.47,63.74,1.83,.94,3.6,1.89,5.33,2.84-18.4-4.34-42.68-4.62-43.12-4.62h0c-.12,0-6.74-.15-18.59,.32-1.95-1.37-31.37-21.81-74.98-39.8C181.89,11.38,146.83,3.02,137.28,.84Z"/>
      <path class="cls-8" d="M339.17,172.53c9.94,2.51,45.29,19.91,49.74,22.11-12.68,14.68-31.08,22.4-41.34,18.29-10.08-4.03-9.6-13.93-8.81-30.32,.15-3.13,.31-6.49,.41-10.08Z"/>
      <path class="cls-2" d="M397.7,181.22c-1.37,2.9-2.98,5.66-4.78,8.25-4.14-2-42.98-20.63-53.65-23.35,.02-8.45-.45-18.03-2.15-28.77,15.82,3.92,62.13,27.42,65.88,29.33-1.51,5.75-3.47,10.69-5.29,14.54Z"/>
      <path class="cls-5" d="M404.43,134.84c1.71,9.45,1.29,18.29-.13,26.01-5.29-2.8-51.56-27.13-68.43-30.45-.87-4.31-1.93-8.79-3.25-13.44-1.67-5.91-3.74-11.49-6-16.68,15.61,3.66,77.18,34.27,77.81,34.58v-.02Z"/>
      <path class="cls-6" d="M85.36,13.16c10.36-4.31,22.1-7.83,35.6-10.17,2.28,.43,45.21,8.64,75.71,21.22,40.28,16.62,70.83,34.86,76.86,38.55-9.15,.53-20.26,1.37-33.04,2.73-5.31,.56-10.52,1.27-15.65,2.08-2.23-1.31-40.91-23.9-69.07-34.39C116.22,18.46,91.52,14.1,85.36,13.16Z"/>
      <path class="cls-4" d="M123.25,99.77c-12.14,5.63-23.38,11.37-33.72,16.78-2.77-1.76-34.36-21.47-79.54-34.03,3.73-7.58,8.14-14.79,12.62-20.98,2.74,.57,26.55,5.69,48.98,14.58,10.64,4.22,46,20.96,51.66,23.65Z"/>
      <path class="cls-7" d="M79.84,121.66c-35.44,18.72-58.85,31.09-72.02,17.91C2.57,134.33-.06,127.07,0,118c.06-9.24,2.96-19.59,7.28-29.61,29.37,7.25,69.95,28.62,75.63,31.65-1.03,.55-2.06,1.09-3.08,1.62Z"/>
      <path class="cls-3" d="M50.71,33.47c7.2-5.6,15.28-10.95,24.58-15.66,2.77,.48,31.42,5.55,62.22,15.41,28.63,9.17,70.97,32.22,77.84,36-14.91,2.8-29.04,6.54-42.39,10.85-2.2-1.25-33.3-18.87-63.45-29.81-27.91-10.13-53.61-15.71-58.8-16.79Z"/>
      <path class="cls-15" d="M44.88,38.22c3.42,.75,39.8,8.82,57.55,15.53,16.37,6.19,56.34,25.86,62.63,28.97-12.31,4.28-23.94,9-34.87,13.88-2.66-1.35-38.37-19.39-54.92-25.93-24.35-9.63-44.55-13.9-48.43-14.67,2.34-2.88,4.63-5.42,6.8-7.53,3.51-3.42,7.24-6.86,11.23-10.25Z"/>
    </g>
    <polygon class="cls-14" points="171.29 172.26 159.21 151.38 76.26 295.05 131.76 295.05 246.09 97.04 376.09 322.22 179.66 322.22 232.05 231.49 247.73 258.66 226.72 295.05 329.04 295.05 246.09 151.38 147.45 322.22 29.2 322.22 159.21 97.04 186.96 145.11 171.29 172.26"/>
    <polygon class="cls-13" points="277.46 151.38 261.77 178.54 246.09 151.38 261.77 124.21 277.46 151.38"/>
    <polygon class="cls-11" points="100.39 295.05 131.76 295.05 116.08 322.22 84.71 322.22 100.39 295.05"/>
    <polygon class="cls-12" points="313.35 322.22 297.67 295.05 329.04 295.05 287.56 223.21 344.72 322.22 313.35 322.22"/>
  </g>
  <g>
    <g>
      <path class="cls-10" d="M427.59,154.59c-.55,0-1.12-.1-1.69-.3s-1.12-.46-1.61-.79c-.5-.33-.9-.73-1.2-1.19-.3-.46-.45-.93-.45-1.42v-45.3c0-.44,.11-.9,.33-1.38,.22-.48,.54-.92,.95-1.32,.41-.4,.92-.73,1.53-.99,.6-.26,1.32-.4,2.15-.4h1.24c1.1,0,2,.31,2.68,.92,.69,.62,1.03,1.19,1.03,1.71v30.73h24.7v-30.73c0-.53,.34-1.1,1.03-1.71,.69-.62,1.55-.92,2.6-.92h.66c.61,0,1.21,.11,1.82,.33,.61,.22,1.14,.51,1.61,.86,.47,.35,.85,.75,1.16,1.19,.3,.44,.46,.88,.46,1.32v45.7c0,1.01-.47,1.88-1.4,2.6-.94,.73-2.09,1.09-3.47,1.09h-2.4c-1.38,0-2.07-.55-2.07-1.65v-10.81h-24.7v10.81c0,1.1-.69,1.65-2.06,1.65h-2.89Z"/>
      <path class="cls-10" d="M477.98,154.59c-1.1,0-1.75-.3-1.94-.89-.19-.59-.29-1.11-.29-1.55v-1.98c0-.62,.12-1.09,.37-1.42,.25-.33,.56-.57,.95-.73,.38-.15,.8-.24,1.24-.26,.44-.02,.83-.03,1.16-.03h.74l.41-37.85h-4.87v-2.04l.08-2.24c0-.7,.38-1.3,1.16-1.78,.77-.48,1.6-.73,2.48-.73h10.99c1.16,0,2.05,.29,2.68,.86,.63,.57,.95,1.21,.95,1.91v4.02h-4.38l-.17,37.92h.99c.22,0,.52,.01,.91,.03,.38,.02,.76,.11,1.12,.26,.36,.15,.67,.39,.95,.69,.27,.31,.41,.77,.41,1.38v2.77c0,.35-.1,.71-.29,1.09-.19,.37-.76,.56-1.69,.56h-13.96Z"/>
      <path class="cls-10" d="M518.13,155.52c-2.7,0-5.27-.43-7.72-1.29-2.45-.86-4.61-2.02-6.48-3.49-1.87-1.47-3.36-3.18-4.46-5.11-1.1-1.93-1.65-3.98-1.65-6.13v-22.75c0-2.46,.63-4.69,1.9-6.69,1.27-2,2.95-3.69,5.04-5.08,2.09-1.38,4.49-2.45,7.19-3.2,2.7-.75,5.48-1.12,8.34-1.12h.17c2.81,.13,5.45,.75,7.93,1.85,2.48,1.1,4.68,2.42,6.61,3.96,.71,.66,1.07,1.34,1.07,2.04,0,1.23-.74,2.22-2.23,2.97l-.33,.2-2.97,.66c-.55,0-1.02-.13-1.4-.4-.39-.26-.72-.55-.99-.86-.94-1.1-2.26-1.93-3.96-2.51-1.71-.57-3.36-.86-4.96-.86s-3.18,.22-4.58,.66c-1.4,.44-2.62,1.06-3.63,1.85-1.02,.79-1.83,1.73-2.44,2.8-.61,1.08-.91,2.27-.91,3.59v22.88c0,1.54,.48,2.97,1.45,4.29,.96,1.32,2.27,2.37,3.92,3.17,1.71,.92,3.63,1.38,5.78,1.38,4.51,0,7.71-1.52,9.58-4.55,.77-1.23,1.16-2.46,1.16-3.69v-11.08h-14.95v-3.63c0-1.01,.47-1.87,1.41-2.57,.94-.7,2.12-1.06,3.55-1.06h16.11c.77,0,1.57,.25,2.4,.76,.83,.51,1.24,1.13,1.24,1.88v16.22c0,.7-.17,1.58-.5,2.64s-.84,2.14-1.53,3.26c-.69,1.12-1.6,2.24-2.73,3.36-1.13,1.12-2.52,2.12-4.17,3-3.14,1.76-6.97,2.64-11.48,2.64h-.74Z"/>
      <path class="cls-10" d="M548.44,154.59c-.55,0-1.12-.1-1.69-.3-.58-.2-1.12-.46-1.61-.79-.5-.33-.9-.73-1.2-1.19-.3-.46-.46-.93-.46-1.42v-45.3c0-.44,.11-.9,.33-1.38,.22-.48,.54-.92,.95-1.32,.41-.4,.92-.73,1.53-.99,.61-.26,1.32-.4,2.15-.4h1.24c1.1,0,2,.31,2.68,.92,.69,.62,1.03,1.19,1.03,1.71v30.73h24.7v-30.73c0-.53,.34-1.1,1.03-1.71,.69-.62,1.55-.92,2.6-.92h.66c.61,0,1.21,.11,1.82,.33,.61,.22,1.14,.51,1.61,.86,.47,.35,.85,.75,1.16,1.19,.3,.44,.46,.88,.46,1.32v45.7c0,1.01-.47,1.88-1.4,2.6-.94,.73-2.09,1.09-3.47,1.09h-2.4c-1.38,0-2.07-.55-2.07-1.65v-10.81h-24.7v10.81c0,1.1-.69,1.65-2.07,1.65h-2.89Z"/>
      <path class="cls-10" d="M629.56,154.46c-2.86,0-5.48-.37-7.85-1.12-2.37-.75-4.38-1.79-6.03-3.13-1.65-1.34-2.93-2.97-3.84-4.88-.91-1.91-1.36-4.06-1.36-6.43v-22.42c0-2.29,.47-4.37,1.4-6.26,.94-1.89,2.23-3.53,3.88-4.91,1.65-1.38,3.65-2.46,5.99-3.23,2.34-.77,4.92-1.15,7.72-1.15,3.14,0,5.99,.35,8.55,1.06,2.56,.7,4.92,1.98,7.06,3.82l.99,.92c.61,.75,.91,1.5,.91,2.24,0,.97-.5,1.74-1.49,2.31l-4.46,2.77-.66-1.32c-.99-1.89-2.34-3.25-4.05-4.09-1.71-.83-3.96-1.25-6.77-1.25-1.65,0-3.11,.24-4.38,.73-1.27,.48-2.33,1.14-3.18,1.98-.85,.84-1.5,1.8-1.94,2.9-.44,1.1-.66,2.26-.66,3.49v22.42c0,1.01,.14,2.04,.41,3.1,.27,1.06,.78,2.01,1.53,2.87,.74,.86,1.78,1.56,3.1,2.11,1.32,.55,3.03,.82,5.12,.82,1.6,0,2.97-.13,4.13-.4,1.16-.26,2.18-.58,3.06-.96,.88-.37,1.64-.78,2.27-1.22,.63-.44,1.2-.86,1.69-1.25,.55-.44,1.04-.8,1.49-1.09,.44-.29,.96-.43,1.57-.43,.44,0,.89,.13,1.36,.4,.47,.26,.89,.59,1.28,.99,.38,.4,.7,.8,.95,1.22,.25,.42,.37,.78,.37,1.09,0,.48-.17,.93-.5,1.35-.33,.42-.69,.78-1.07,1.09-1.1,.92-2.22,1.75-3.34,2.47-1.13,.73-2.35,1.34-3.68,1.85-1.32,.51-2.75,.89-4.29,1.15-1.54,.26-3.3,.4-5.29,.4Z"/>
      <path class="cls-10" d="M657.73,154.72c-2.42,0-3.99-.35-4.71-1.06-.39-.4-.52-.88-.41-1.45l3.88-10.22,13.13-37.26c.44-.75,1.07-1.42,1.9-2.01,.83-.59,1.82-.89,2.97-.89,1.38,0,2.48,.32,3.3,.96,.83,.64,1.38,1.31,1.65,2.01l11.65,33.23,1.49,3.96,3.14,9.96c.22,.48,.14,1.01-.25,1.58-.28,.26-.73,.54-1.36,.82-.63,.29-1.89,.43-3.76,.43h-.41c-.17,0-.28-.02-.33-.07l-.25,.07c-.61,0-1.24-.13-1.9-.4-.66-.26-1.21-.81-1.65-1.65l-3.14-9.96h-16.52l-3.39,9.76c-.22,.62-.69,1.13-1.4,1.55-.72,.42-1.54,.63-2.48,.63h-1.16Zm11.23-19.12h6.53c2.15,0,3.83-.02,5.04-.07l-6.03-16.22-5.54,16.29Z"/>
      <path class="cls-10" d="M742.73,150.97c0,1.01-.41,1.87-1.24,2.57-.83,.7-1.85,1.06-3.06,1.06h-3.55l-26.27-36.27v36.27h-4.87c-1.27,0-2.3-.35-3.1-1.06-.8-.7-1.2-1.56-1.2-2.57v-45.17c0-1.27,.45-2.29,1.36-3.03,.91-.75,2.13-1.12,3.68-1.12h.17l2.64,.2,26.43,36.4-.33-36.53h5.04c1.1,0,2.09,.37,2.97,1.12,.88,.75,1.32,1.58,1.32,2.51v45.63Z"/>
      <path class="cls-10" d="M771.39,154.59c-1.21,0-2.34-.33-3.39-.99-1.05-.66-1.57-1.56-1.57-2.7v-45.76c0-.48,.15-.93,.45-1.35,.3-.42,.7-.79,1.2-1.12,.5-.33,1.03-.59,1.61-.79s1.14-.3,1.69-.3h32.38c1.38,0,2.53,.34,3.47,1.02,.94,.68,1.4,1.53,1.4,2.54v3.76h-32.38v11.8h20.57c1.43,0,2.62,.39,3.55,1.15,.94,.77,1.4,1.59,1.4,2.47v3.69h-25.53v24.93c0,.35-.11,.71-.33,1.09-.22,.37-.77,.56-1.65,.56h-2.89Z"/>
      <path class="cls-10" d="M817.41,154.59c-1.43,0-2.62-.4-3.55-1.19-.94-.79-1.4-1.63-1.4-2.51v-45.37c0-1.01,.47-1.87,1.4-2.57,.94-.7,2.12-1.06,3.55-1.06h4.96v45.43h25.03v3.03c0,1.14-.5,2.13-1.49,2.97-.99,.84-2.15,1.25-3.47,1.25h-25.03Z"/>
      <path class="cls-10" d="M852.43,102.96c.55-.7,1.46-1.06,2.73-1.06h4.79l13.38,21.56,13.46-21.56h4.87c1.21,0,2.09,.35,2.64,1.06,.33,.4,.51,.81,.54,1.25,.03,.44-.04,.84-.21,1.19-.11,.26-.34,.72-.7,1.35-.36,.64-.99,1.68-1.9,3.13-.91,1.45-2.12,3.42-3.63,5.9-1.52,2.48-3.48,5.68-5.91,9.59l-4.54,7.52v21.63h-4.87c-1.1,0-2.09-.37-2.97-1.12-.88-.75-1.32-1.58-1.32-2.51v-18l-3.3-5.34c-2.64-4.31-4.8-7.84-6.48-10.58-1.68-2.75-3.01-4.93-4.01-6.56-.99-1.63-1.68-2.8-2.06-3.53-.39-.73-.63-1.22-.74-1.48h-.08c-.17-.35-.24-.75-.21-1.19,.03-.44,.21-.86,.54-1.25Z"/>
    </g>
    <g>
      <path class="cls-1" d="M479.59,167.81c3.3,0,6.35,.55,9.13,1.64,2.78,1.09,4.92,2.54,6.4,4.33,.94,.93,1.58,1.89,1.94,2.88,.36,.99,.54,2,.54,3.04v6.78c0,1.47-.44,2.93-1.32,4.39-.88,1.45-2.2,2.84-3.97,4.17-1.65,1.08-3.59,1.92-5.82,2.53-2.23,.61-4.53,.92-6.9,.92h-15.86v10.71h-2.31c-.77,0-1.38-.13-1.82-.38-.44-.25-.66-.54-.66-.86v-38.86c0-.22,.26-.48,.79-.81,.52-.32,1.09-.48,1.69-.48h18.17Zm-15.86,27.99h15.86c2.48,0,4.78-.4,6.9-1.21,2.12-.81,3.9-1.96,5.33-3.47,.55-.68,.98-1.42,1.28-2.21,.3-.79,.45-1.6,.45-2.42v-7.16c-.11-1.11-.51-2.17-1.2-3.18-.69-1-1.57-1.89-2.64-2.66-1.07-.77-2.3-1.43-3.68-1.96-1.38-.54-2.84-.92-4.38-1.13h-17.93v25.4Z"/>
      <path class="cls-1" d="M520.81,167.81c.71,0,1.27,.12,1.65,.35,.38,.23,.66,.55,.83,.94l17.43,39.83-3.63,.05c-.61,0-.96-.04-1.07-.13-.11-.09-.22-.22-.33-.4v.05l-4.13-9.63h-21.4l-.41,.65-3.72,8.93c-.06,.32-.5,.48-1.32,.48h-3.88l4.05-8.45,13.47-31.43v.05c.27-.36,.6-.66,.99-.92,.38-.25,.88-.38,1.49-.38Zm9.67,28.58l-9.75-22.07-9.17,22.07h18.92Z"/>
      <path class="cls-1" d="M567.9,167.81c2.48,0,4.8,.3,6.98,.89,2.17,.59,4.07,1.41,5.7,2.45,1.62,1.04,2.9,2.26,3.84,3.66,.94,1.4,1.4,2.91,1.4,4.52v7.16c0,1.36-.39,2.71-1.16,4.04-.77,1.33-1.85,2.52-3.22,3.58-1.38,1.06-3,1.94-4.87,2.64-1.87,.7-3.88,1.1-6.03,1.21,3.36,1.76,6.04,3.2,8.05,4.33,2.01,1.13,3.66,2.03,4.96,2.69,1.29,.67,2.38,1.13,3.26,1.4,.88,.27,1.82,.4,2.81,.4h.91c.66,0,1.06,.14,1.2,.43,.14,.29,.21,.48,.21,.59v1.29h-2.31c-1.93,0-3.65-.17-5.16-.51-1.52-.34-2.74-.8-3.68-1.37l-15.7-8.83h-13.38v10.71h-2.06c-.61,0-1.14-.18-1.61-.54-.47-.36-.7-.63-.7-.81v-38.64c0-.32,.23-.62,.7-.89,.47-.27,1-.4,1.61-.4h18.26Zm-16.19,27.93h16.19c2.42,0,4.68-.41,6.77-1.24,2.09-.83,3.85-1.97,5.29-3.45,.55-.65,.98-1.36,1.28-2.15,.3-.79,.45-1.6,.45-2.42v-7.16c0-1.62-.63-3.14-1.9-4.58-1.27-1.43-2.95-2.57-5.04-3.39-1.05-.47-2.09-.8-3.14-1-1.05-.2-2.15-.3-3.3-.3h-16.6v25.67Z"/>
      <path class="cls-1" d="M613.5,167.81c.71,0,1.27,.12,1.65,.35,.38,.23,.66,.55,.83,.94l17.43,39.83-3.63,.05c-.61,0-.96-.04-1.07-.13-.11-.09-.22-.22-.33-.4v.05l-4.13-9.63h-21.4l-.41,.65-3.72,8.93c-.06,.32-.5,.48-1.32,.48h-3.88l4.05-8.45,13.47-31.43v.05c.27-.36,.6-.66,.99-.92,.38-.25,.88-.38,1.49-.38Zm9.67,28.58l-9.75-22.07-9.17,22.07h18.92Z"/>
      <path class="cls-1" d="M660.67,167.81c3.3,0,6.35,.55,9.13,1.64,2.78,1.09,4.92,2.54,6.4,4.33,.94,.93,1.58,1.89,1.94,2.88,.36,.99,.54,2,.54,3.04v6.78c0,1.47-.44,2.93-1.32,4.39-.88,1.45-2.2,2.84-3.97,4.17-1.65,1.08-3.59,1.92-5.82,2.53-2.23,.61-4.53,.92-6.9,.92h-15.86v10.71h-2.31c-.77,0-1.38-.13-1.82-.38-.44-.25-.66-.54-.66-.86v-38.86c0-.22,.26-.48,.79-.81,.52-.32,1.09-.48,1.69-.48h18.17Zm-15.86,27.99h15.86c2.48,0,4.78-.4,6.9-1.21,2.12-.81,3.9-1.96,5.33-3.47,.55-.68,.98-1.42,1.28-2.21,.3-.79,.45-1.6,.45-2.42v-7.16c-.11-1.11-.51-2.17-1.2-3.18-.69-1-1.57-1.89-2.64-2.66-1.07-.77-2.3-1.43-3.68-1.96-1.38-.54-2.84-.92-4.38-1.13h-17.93v25.4Z"/>
      <path class="cls-1" d="M724.19,167.86c.66,0,1.21,.12,1.65,.35,.44,.23,.66,.4,.66,.51v1.35h-35.44v14.05h28.5c.77,0,1.38,.13,1.82,.4,.44,.27,.66,.58,.66,.94v1.34h-30.98v19.86h35.44v1.35c0,.14-.22,.33-.66,.57-.44,.23-.99,.35-1.65,.35h-35.52c-.28,0-.63-.12-1.07-.38-.44-.25-.66-.43-.66-.54v-39.29c0-.07,.21-.23,.62-.48,.41-.25,.78-.38,1.11-.38h35.52Z"/>
      <path class="cls-1" d="M772.35,167.81c.38,0,.77,.13,1.16,.4,.38,.27,.58,.56,.58,.89v38.54c0,.4-.17,.71-.5,.94-.33,.23-.74,.35-1.24,.35h-2.06l-31.39-35.42-.08,35.42h-2.31c-.5,0-.91-.12-1.24-.35-.33-.23-.5-.55-.5-.94v-38.16c0-1.15,.8-1.72,2.4-1.72l1.4,.11,31.72,35.74-.41-35.79h2.48Z"/>
      <path class="cls-1" d="M813.9,167.81c.66,0,1.23,.12,1.69,.35,.47,.23,.7,.42,.7,.57v1.29h-14.95v38.97h-1.74c-.66,0-1.21-.13-1.65-.4-.44-.27-.66-.58-.66-.94v-37.62h-14.95v-1.29c0-.18,.25-.38,.74-.59,.5-.22,1.05-.32,1.65-.32h29.16Z"/>
      <path class="cls-1" d="M861.81,167.86c.66,0,1.21,.12,1.65,.35,.44,.23,.66,.4,.66,.51v1.35h-35.44v14.05h28.5c.77,0,1.38,.13,1.82,.4,.44,.27,.66,.58,.66,.94v1.34h-30.98v19.86h35.44v1.35c0,.14-.22,.33-.66,.57-.44,.23-.99,.35-1.65,.35h-35.52c-.28,0-.63-.12-1.07-.38-.44-.25-.66-.43-.66-.54v-39.29c0-.07,.21-.23,.62-.48,.41-.25,.78-.38,1.11-.38h35.52Z"/>
    </g>
  </g>
</svg>